Coordinates
version=1
nRows=16
nColumns=36
inDegrees=yes

Units are S.I. units (second, meters, Newtons, ...)
If the header above contains a line with 'inDegrees', this indicates whether rotational values are in degrees (yes) or radians (no).

endheader
time	pelvis_tilt	pelvis_list	pelvis_rotation	pelvis_tx	pelvis_ty	pelvis_tz	hip_flexion_r	hip_adduction_r	hip_rotation_r	knee_angle_r	knee_angle_r_beta	ankle_angle_r	subtalar_angle_r	mtp_angle_r	hip_flexion_l	hip_adduction_l	hip_rotation_l	knee_angle_l	knee_angle_l_beta	ankle_angle_l	subtalar_angle_l	mtp_angle_l	lumbar_extension	lumbar_bending	lumbar_rotation	arm_flex_r	arm_add_r	arm_rot_r	elbow_flex_r	pro_sup_r	arm_flex_l	arm_add_l	arm_rot_l	elbow_flex_l	pro_sup_l
      6.46666670	     -3.34090265	      0.46731682	      1.98743877	      0.10330235	      0.88827666	      0.08414683	      4.45490747	     -5.07100793	     -4.18857620	      1.96473983	      0.03429118	      7.21255027	     -3.71019022	     -7.49999987	      8.00654417	     -7.84936208	     -5.96521048	      2.03485822	      0.03551498	      1.40428120	      0.42500165	     -7.49999987	      1.58672617	     -0.23927765	     -0.79161387	     31.05986380	      7.46064192	     64.30582458	    132.30505527	     98.88041446	     36.36033961	      4.63336997	     64.40779453	    129.61300373	     83.16807056
      6.48333330	     -3.17114250	      0.45292988	      1.81099823	      0.10437038	      0.88699887	      0.08414216	      4.35486645	     -5.02128292	     -4.02636681	      1.99011411	      0.03473404	      6.98499360	     -3.96810549	     -7.49999987	      7.78649636	     -7.92139812	     -5.98168970	      2.01495967	      0.03516768	      1.21286183	      0.22862769	     -7.49999987	      1.73670337	     -0.24359242	     -0.70114504	     31.06321525	      7.44713110	     64.38144816	    132.20805748	     98.81875343	     36.10379107	      4.41407279	     64.20301834	    129.51966162	     83.76332355
      6.50000000	     -2.97841956	      0.42236201	      1.67201240	      0.10626426	      0.88523855	      0.08411133	      4.20818183	     -4.94191711	     -4.01445764	      1.95758811	      0.03416636	      6.73825297	     -4.18414398	     -7.49999987	      7.54566876	     -7.99183323	     -6.03786152	      2.04364687	      0.03566837	      1.16642672	      0.14745162	     -7.49999987	      1.91891167	     -0.21293030	     -0.63037696	     31.03760127	      7.35150080	     64.33718857	    132.03985536	     98.73670803	     35.80143334	      4.33583433	     64.02286991	    129.46093424	     84.28176273
      6.51666670	     -2.84437888	      0.43329880	      1.56758677	      0.10650739	      0.88731174	      0.08409786	      4.13571243	     -4.94257596	     -4.14701805	      1.92236046	      0.03355152	      6.57226574	     -4.18152974	     -7.49999987	      7.37246971	     -7.99651701	     -5.91330362	      2.08440191	      0.03637968	      1.08539468	     -0.10088513	     -7.49999987	      2.13599449	     -0.22831265	     -0.62219429	     31.07588124	      7.25366083	     64.33854379	    131.83396041	     98.78771874	     35.61138021	      4.25628271	     63.88253041	    129.42296917	     84.41240577
      6.53333330	     -2.71619163	      0.46285945	      1.45810527	      0.10652836	      0.88760367	      0.08462694	      4.05767263	     -4.97461501	     -4.20949420	      1.75870740	      0.03069523	      6.35008823	     -4.23227785	     -7.49999987	      7.21406819	     -7.99697024	     -5.83566941	      2.16975955	      0.03786945	      1.01402620	     -0.28702441	     -7.49999987	      2.32066564	     -0.28053684	     -0.57716384	     31.11407385	      7.15694966	     64.20622544	    131.70822761	     98.98240500	     35.49937984	      4.23245290	     63.77890455	    129.31001889	     84.78389310
      6.55000000	     -2.56991156	      0.52396340	      1.42576727	      0.10674920	      0.88711474	      0.08436818	      3.95474542	     -5.06425935	     -4.29839371	      1.57729829	      0.02752905	      6.18400687	     -4.35618301	     -7.49999987	      7.03645608	     -7.93844891	     -5.65638154	      2.20387421	      0.03846486	      0.97448824	     -0.61361128	     -7.49999987	      2.39713730	     -0.37865485	     -0.68071932	     31.38144962	      7.10655406	     64.37511320	    131.79734746	     95.35571192	     35.70952863	      3.99291728	     63.48882529	    129.22066354	     82.73969738
      6.56666670	     -2.57312320	      0.62175424	      1.27402496	      0.10692825	      0.88774866	      0.08488018	      4.00879579	     -5.18347152	     -4.06554636	      1.39100632	      0.02427764	      5.87518185	     -4.70991860	     -7.49999987	      7.03540979	     -7.87851873	     -5.85466313	      2.31125410	      0.04033899	      1.06942437	     -0.43370873	     -7.49999987	      2.68102971	     -0.55131861	     -0.47648709	     31.28648853	      6.96536725	     63.81586943	    131.77840816	     99.39509039	     35.78117825	      4.13440630	     63.22775540	    128.91320266	     85.54745899
      6.58333330	     -2.50908793	      0.68204662	      1.26360042	      0.10707099	      0.88850655	      0.08495510	      3.95685362	     -5.27051319	     -4.11939454	      1.24552673	      0.02173854	      5.79710983	     -4.65787645	     -7.49999987	      7.00780084	     -7.82449405	     -5.81515772	      2.39287227	      0.04176350	      1.05103894	     -0.56092463	     -7.49999987	      2.81500436	     -0.62237430	     -0.43281853	     31.39760619	      6.87654993	     63.72065613	    131.63875045	     99.69738835	     35.88937659	      4.16411181	     63.07313758	    128.62994073	     86.08260173
      6.60000000	     -2.41972346	      0.80116418	      1.19682933	      0.10737741	      0.89158710	      0.08532977	      3.86797095	     -5.39372558	     -3.97497424	      1.16459337	      0.02032599	      5.44046041	     -4.94675422	     -7.49999987	      6.90463235	     -7.71715148	     -5.98959823	      2.51822242	      0.04395127	      0.97086516	     -0.48575014	     -7.49999987	      2.84836318	     -0.83162821	     -0.31012467	     31.34524178	      6.77438906	     63.71479543	    131.71532569	     99.53308048	     35.96249147	      4.21462790	     63.21729741	    128.32497897	     85.64796880
      6.61666670	     -2.33255743	      0.89798382	      1.12351147	      0.10727338	      0.88898289	      0.08516880	      3.82160934	     -5.50609870	     -4.24899970	      1.15576066	      0.02017183	      5.55557588	     -4.47127238	     -7.49999987	      6.78363758	     -7.61760200	     -5.99081437	      2.58088229	      0.04504489	      0.96196565	     -0.69936584	     -7.49999987	      2.84417340	     -0.96568526	     -0.40557100	     31.55623077	      6.78134052	     63.72798730	    131.75048899	    100.31271133	     36.01426984	      4.16625236	     63.06823223	    128.23720829	     86.46580880
      6.63333330	     -2.29812327	      0.99231448	      1.03557567	      0.10688631	      0.89052836	      0.08523200	      3.84419343	     -5.60938568	     -4.13562044	      1.16729053	      0.02037306	      5.35481087	     -4.55945525	     -7.49999987	      6.73311824	     -7.52247782	     -6.11594554	      2.59704918	      0.04532706	      0.81504538	     -0.74609297	     -7.49999987	      2.80323597	     -1.15506458	     -0.31394363	     31.60993557	      6.74345565	     63.82723639	    131.90951705	    100.46631922	     36.04227203	      4.19848744	     63.27986638	    128.13065799	     86.30854788
      6.65000000	     -2.23006689	      1.10340590	      1.02737219	      0.10717577	      0.88994346	      0.08428236	      3.82277965	     -5.76547558	     -4.30161588	      1.22503215	      0.02138084	      5.49293581	     -4.10748279	     -7.49999987	      6.64476879	     -7.38048221	     -6.18596102	      2.64867940	      0.04622818	      0.82726384	     -0.72679141	     -7.49999987	      2.73591311	     -1.28765781	     -0.41234519	     31.72210663	      6.76319411	     63.86330931	    132.06906814	    100.72568013	     36.08870601	      4.21132975	     63.31779961	    128.09306388	     86.72193093
      6.66666670	     -2.18945673	      1.17779935	      1.03458340	      0.10760502	      0.88988804	      0.08391484	      3.81088332	     -5.86632877	     -4.28444274	      1.29023287	      0.02251881	      5.37627839	     -4.20560962	     -7.49999987	      6.54449665	     -7.24675025	     -6.25772346	      2.59751692	      0.04533522	      0.86604183	     -0.75552375	     -7.49999987	      2.74752352	     -1.36969212	     -0.34674913	     31.87833838	      6.77413867	     63.95551442	    132.02755740	    100.87800844	     36.12530924	      4.22454043	     63.44745527	    128.18534454	     86.83489704
      6.68333330	     -2.18919383	      1.23084884	      1.06956907	      0.10641193	      0.88717438	      0.08298477	      3.92606537	     -5.96966535	     -4.36942935	      1.45866747	      0.02545855	      5.35741003	     -4.38692128	     -7.49999987	      6.56220898	     -7.10698943	     -6.26637847	      2.64781593	      0.04621311	      1.04087180	     -0.88832562	     -7.49999987	      2.79232237	     -1.36190556	     -0.29353118	     32.14996657	      6.80477610	     63.90895334	    132.05231455	    101.11705758	     36.33818556	      4.38032077	     63.43262188	    128.27636066	     86.78480338
      6.70000000	     -2.16594977	      1.28740455	      1.12037449	      0.10637411	      0.88862783	      0.08254649	      4.03009165	     -6.08076999	     -4.47162744	      1.61394065	      0.02816858	      5.29348994	     -4.53220757	     -7.49999987	      6.56564147	     -6.96307533	     -6.35175118	      2.69994174	      0.04712287	      1.18575029	     -0.90036284	     -7.49999987	      2.79928395	     -1.36138023	     -0.17972115	     32.42665873	      6.75789643	     63.81984283	    132.07906780	    101.06877431	     36.54344656	      4.57863339	     63.39263245	    128.16269465	     87.10167762
      6.71666670	     -2.20747728	      1.33797386	      1.17064921	      0.10633778	      0.89078001	      0.08147706	      4.16915386	     -6.18692057	     -4.21385108	      1.68018868	      0.02932482	      4.96298164	     -5.19730440	     -7.49999987	      6.68888681	     -6.83145862	     -6.39822751	      2.74331368	      0.04787986	      1.19872291	     -0.94825794	     -7.49999987	      2.85069968	     -1.32678309	     -0.10108904	     32.43839275	      6.64681355	     63.90928821	    132.09992662	    100.55888159	     36.61875016	      4.68731494	     63.44490666	    128.08687694	     86.90582599
